<?xml version="1.0" encoding="UTF-8" standalone="no"?>
<!DOCTYPE svg PUBLIC "-//W3C//DTD SVG 1.1//EN" "http://www.w3.org/Graphics/SVG/1.1/DTD/svg11.dtd">
<svg width="100%" height="100%" viewBox="0 0 1383 672" version="1.1" xmlns="http://www.w3.org/2000/svg" xmlns:xlink="http://www.w3.org/1999/xlink" xml:space="preserve" xmlns:serif="http://www.serif.com/" style="fill-rule:evenodd;clip-rule:evenodd;stroke-linejoin:round;stroke-miterlimit:2;">
    <g transform="matrix(1,0,0,1,1.52101e-13,-25.4688)">
        <g transform="matrix(1.1001,0,0,1.1001,-88.1608,-28.4362)">
            <path d="M330,329L330,330L192,348C212.861,326.203 231.206,301.662 251.155,279C286.257,239.123 321.874,199.804 355.92,159C369.287,142.979 381.869,125.453 397,111.04C398.572,109.542 416.508,98.375 408.847,97.132C401.235,95.897 391.617,106.338 387.004,111C370.386,127.791 356.045,147.037 340.728,165C291.703,222.495 240.357,277.831 192.081,336C188.19,340.688 184.462,347.018 178.999,350.012C170.131,354.872 157.626,355.189 148,358.695C144.623,359.925 134.468,363.233 136.662,368.555C138.064,371.957 142.877,369.224 145,368.307C153.755,364.527 163.055,363.034 172,360C153.123,388.542 128.164,417.797 104,442C97.877,448.133 91.875,454.219 85.005,459.525C83.47,460.711 78.399,463.8 80.751,466.306C84.809,470.63 97.325,458.398 100,455.91C117.012,440.091 131.411,421.803 146.247,404C154.821,393.711 163.384,383.416 171.803,373C175.575,368.334 179.712,361.197 185.09,358.314C190.46,355.435 198.073,355.495 204,354.576C216.66,352.612 229.31,350.634 242,348.87C264.287,345.771 286.674,343.466 309,340.715C319.657,339.402 333.367,335.164 344,336.923C356.324,338.962 369.357,349.223 381,354C367.656,359.667 351.948,361.519 338,365.72C303.353,376.155 269.088,387.115 236,401.861C224.361,407.048 210.118,411.758 200.019,419.61C194.044,424.255 193.41,432.642 202,434C198.637,419.515 232.141,410.815 243,406.15C278.645,390.84 315.679,378.719 353,368.14C366.615,364.281 384.39,356.464 398,362C362.245,385.58 319.617,398.964 282,419.309C274.237,423.507 247.686,434.369 250.478,445.867C251.703,450.912 259.092,450.08 263,449.985C275.616,449.681 287.993,445.316 300,441.859C320.728,435.891 340.593,426.956 361,420.003C391.19,409.717 421.661,401.219 452,392C439.949,409.061 413.836,419.125 396,429.139C390.312,432.332 375.583,437.496 374.582,444.91C373.632,451.944 385.547,449.086 389,448.338C404.318,445.021 419.371,439.348 434,433.808C448.816,428.197 463.884,423.377 479,418.659C484.83,416.839 493.429,412.489 499.576,413.164C509.618,414.265 523.4,425.413 532,430.601C555.6,444.838 580.308,460.627 598.079,482C606.635,492.29 614.218,505.068 612.829,519C611.441,532.935 602.65,543.575 593,552.985C572.931,572.557 545.511,586.28 520,597.281C430.97,635.671 325.219,662.481 228,646.247C189.91,639.886 134.939,621.582 128.299,577C119.313,516.656 181.477,468.313 227,441C239.394,433.564 252.058,426.678 265,420.248C267.47,419.02 278.166,415.024 273.377,410.707C269.612,407.312 258.554,414.976 255,416.753C236.401,426.053 218.281,436.424 201,448.001C152.558,480.454 82.488,558.001 138.439,615.576C146.186,623.547 155.229,630.353 165,635.688C200.3,654.961 242.587,659 282,659C364.371,659 446.49,638.355 522,605.999C560.454,589.522 629.333,558.832 620.674,507C618.03,491.173 606.931,477.927 596,467C571.293,442.301 540.416,427.004 511,409C536.782,400.756 563.117,392.692 590,389C593.648,388.499 614.467,384.465 615.369,389.278C616.085,393.101 607.563,396.871 605,398.396C592.139,406.047 578.196,411.12 564,415.656C562.349,416.183 546.07,420.052 551.623,423.655C554.604,425.59 560.913,422.897 564,422.127C574.971,419.387 585.981,416.878 597,414.349C625.399,407.831 654.03,400.312 683,396.845C694.939,395.416 708.121,393.172 720,396C712.251,406.521 697.597,411.379 686,416.424C682.451,417.969 672.835,420.431 672.176,424.957C671.599,428.92 678.783,428.065 681,427.91C690.656,427.238 700.472,424.294 710,422.576C751.26,415.134 794.989,406.116 837,406L837,407C820.14,409.49 802.258,416.149 786,421.344C783.938,422.003 768.105,426.064 772.662,429.988C777.83,434.438 796.046,427.25 802,425.881C829.051,419.661 858.199,412.194 886,411L886,412C880.415,417.287 900.699,415.099 903,414.914C920.312,413.523 945.573,408.068 962,415C889.181,438.695 813.556,453.909 740,475.424C722.781,480.461 705.929,487.01 690,495.258C685.876,497.394 675.619,502.634 679.047,508.772C681.134,512.507 686.393,511.994 690,512C700.109,512.017 710.067,510.591 720,508.739C761.322,501.036 802.153,489.037 843,479.13C918.24,460.881 994.759,447.379 1072,442.09C1100.34,440.148 1128.62,440.203 1157,438.961C1212.3,436.539 1277.62,435.683 1330,456L1330,458C1327.8,458.918 1316.83,463.234 1321.62,466.961C1328.52,472.318 1342.29,459.232 1335.43,451.329C1324.86,439.161 1295.9,438.207 1281,436.13C1229.66,428.977 1177.79,429.388 1126,430.004C1030.49,431.14 935.901,448.331 843,469.651C814.518,476.187 786.258,483.454 758,490.884C735.596,496.775 712.338,504 689,504L689,503C756.273,471.591 831.23,457.569 903,439.627C920.505,435.25 937.886,430.392 955,424.667C959.526,423.152 969.841,421.128 970.168,415.004C970.43,410.101 963.511,409.337 960,409.09C948.441,408.274 936.588,409 925,409L925,408L928,407C923.97,399.692 909.068,403.158 902,403.83C877.753,406.138 854.117,410.885 830,414L830,413C833.4,412.498 851.988,408.691 847.914,402.6C846.197,400.034 840.598,401 838,401C828.001,400.999 817.922,401.528 808,402.715C782.262,405.793 756.604,408.847 731,413.08C716.448,415.486 701.681,419.832 687,421L687,420C697.951,417.005 712.24,410.633 720.811,403.1C729.941,395.076 720.523,389.109 712,389.004C708.672,388.963 705.327,388.933 702,389.015C667.104,389.87 634.297,404.199 600,407L600,406C606.378,404.124 630.945,392.816 620.682,383.564C614.08,377.612 596.923,381.445 589,382.579C570.419,385.24 551.997,389.38 534,394.721C524.51,397.537 512.202,403.89 502.285,403.833C493.856,403.784 480.391,393.482 473,389.436C453.562,378.793 432.457,368.517 412,360C412.457,356.425 411.875,353.579 407.956,352.434C403.425,351.11 398.575,352.561 394,351.046C381.878,347.029 370.768,339.9 359,335L359,334C449.923,326.824 542.872,301.687 628,269.95C650.181,261.68 671.856,252.399 693,241.752C697.316,239.579 709.523,229.86 714.096,233.531C724.147,241.597 713.921,257.839 708.192,265C691.077,286.395 663.929,300.705 640,313.255C633.001,316.926 625.864,320.672 619.059,324.68C617.43,325.639 613.675,328.788 616.623,330.637C619.461,332.416 624.521,328.984 627,327.752C636.193,323.187 645.086,317.935 654,312.85C683.79,295.853 739.399,267.561 720,226C773.756,202.806 816.514,131.585 764.985,84.951C757.189,77.894 747.725,72.424 738,68.452C696.014,51.306 650.694,49 606,49C509.498,49 414.801,71.512 321,91.79C285.996,99.357 250.956,108.509 218,122.719C209.617,126.334 190.493,131.714 186.086,140.324C184.274,143.866 187.982,145.875 191.005,144.856C198.866,142.205 206.308,136.263 214,132.862C246.245,118.606 279.931,110.102 314,101.627C410.983,77.499 512.783,57 613,57C654.939,57 706.634,59.557 744,80.873C751.822,85.335 758.696,90.553 764.985,97C796.808,129.623 776.643,168.352 749,194.989C741.198,202.507 723.565,220.511 712,220.714C705.85,220.821 698.044,215.767 692,214.155C679.661,210.865 666.681,209.377 654,208.17C616.92,204.641 577.858,207.929 541,212.718C474.414,221.371 408.386,231.362 343,246.884C323.082,251.613 283.829,257.724 273.688,278C269.338,286.698 274.764,294.97 281.015,300.91C293.355,312.637 313.608,324.278 330,329ZM257,444C278.77,444 298.762,436.455 319,429.053C344.929,419.57 370.994,410.563 397,401.308C413.291,395.51 430.606,388.384 448,387C440.421,379.645 426.504,375.493 417,370.753C413.488,369.002 409.062,366.036 405,366.109C395.235,366.283 381.158,378.58 372,382.576C343.91,394.833 316.409,409.047 289,422.753C279.2,427.654 262.373,434.03 257,444ZM459,392C445.111,418.773 403.751,420.962 385,443L452,420.344L490,408C482.557,401.031 468.775,394.816 459,392ZM704,227C697.155,221.879 686.287,220.478 678,219.081C657.791,215.675 637.451,215 617,215C536.679,215 453.298,230.282 375,247.576C350.605,252.964 325.264,258.341 302,267.601C294.922,270.418 281.506,275.145 280.333,284.001C278.985,294.186 295.799,302.73 303,306.85C314.975,313.7 331.133,325.808 345,327.632C356.57,329.154 371.45,324.393 383,322.729C459.845,311.656 535.817,294.827 609,268.692C641.507,257.083 674.185,244.583 704,227ZM453,157L453,159C464.889,162.513 481.298,155.262 493,152.374C518.245,146.144 545.91,139.439 572,139.003C581.37,138.846 590.571,137.443 600,138.165C602.064,138.323 607.705,139.119 606.94,135.258C606.352,132.293 600.253,132.245 598,132.089C588.868,131.46 579.126,132.464 570,133.089C543.292,134.918 516.965,140.962 491,147.116C478.416,150.098 464.892,151.735 453,157Z"/>
        </g>
    </g>
</svg>
